<svg xmlns="http://www.w3.org/2000/svg" width="26" height="208" viewBox="0 0 26 208">
  <!-- Все фигуры преобразованы в path -->
  
  <!-- Два белых круга с opacity -->
  <path d="M24 117a11 11 0 1 1-22 0 11 11 0 0 1 22 0z" fill="#fff" fill-opacity=".78"/>
  <path d="M24 143a11 11 0 1 1-22 0 11 11 0 0 1 22 0z" fill="#fff" fill-opacity=".78"/>
  
  <!-- Два контурных круга -->
  <path d="M20 169a7 7 0 1 1-14 0 7 7 0 0 1 14 0z" fill="none" stroke="#000" stroke-width="2"/>
  <path d="M20 195a7 7 0 1 1-14 0 7 7 0 0 1 14 0z" fill="none" stroke="#000" stroke-width="2"/>
  
  <!-- Маленький черный круг -->
  <path d="M15.5 195a2.5 2.5 0 1 1-5 0 2.5 2.5 0 0 1 5 0z"/>
  
  <!-- Первый набор иконок -->
  <path d="M5 83v6h2v-4h4v-2h-6zm10 0v2h4v4h2v-6h-6zm-5 5v6h6v-6h-6zm-5 5v6h6v-2h-4v-4h-2zm14 0v4h-4v2h6v-6h-2z"/>
  
  <!-- Круг со стрелкой вниз -->
  <path d="M13 110a7 7 0 1 0 7 7 7 7 0 0 0-7-7zm-1 3h2v2h-2v-2zm0 3h2v5h-2v-5z"/>
  
  <!-- Второй набор иконок -->
  <path d="M5 57v6h2v-4h4v-2h-6zm10 0v2h4v4h2v-6h-6zm-10 10v6h6v-2h-4v-4h-2zm14 0v4h-4v2h6v-6h-2z"/>
  
  <!-- Горизонтальная линия -->
  <path d="M17 38v2H9v-2h8z"/>
  
  <!-- Плюс -->
  <path d="M12 9v3H9v2h3v3h2v-3h3v-2h-3V9h-2z"/>
  
  <!-- Стрелка вниз -->
  <path d="M13 136 6.875 142.125h4.375v7.875h3.5v-7.875h4.375L13 136z"/>
  
  <!-- Иконка шестеренки/настройки -->
  <path d="M10.428 173.33v-5.77l5-2.89v5.77l-5 2.89zm1-1.73 3-1.73-3.001-1.74-3 1.73 3 1.74z"/>
</svg>